<svg width="508" height="106" viewBox="0 0 508 106" fill="none" xmlns="http://www.w3.org/2000/svg">
<rect width="502" height="106" rx="6" fill="white"/>
<path d="M29.92 37L34.96 25.8H37.008L42.064 37H39.888L35.552 26.904H36.384L32.064 37H29.92ZM32.24 34.408L32.8 32.776H38.848L39.408 34.408H32.24ZM43.4884 37V25.8H48.0964C49.0884 25.8 49.9364 25.96 50.6404 26.28C51.355 26.6 51.9044 27.0587 52.2884 27.656C52.6724 28.2533 52.8644 28.9627 52.8644 29.784C52.8644 30.6053 52.6724 31.3147 52.2884 31.912C51.9044 32.5093 51.355 32.968 50.6404 33.288C49.9364 33.608 49.0884 33.768 48.0964 33.768H44.6404L45.5684 32.792V37H43.4884ZM45.5684 33.016L44.6404 32.008H48.0004C48.9177 32.008 49.6057 31.816 50.0644 31.432C50.5337 31.0373 50.7684 30.488 50.7684 29.784C50.7684 29.0693 50.5337 28.52 50.0644 28.136C49.6057 27.752 48.9177 27.56 48.0004 27.56H44.6404L45.5684 26.536V33.016ZM54.9415 37V25.8H59.5495C60.5415 25.8 61.3895 25.96 62.0935 26.28C62.8082 26.6 63.3575 27.0587 63.7415 27.656C64.1255 28.2533 64.3175 28.9627 64.3175 29.784C64.3175 30.6053 64.1255 31.3147 63.7415 31.912C63.3575 32.5093 62.8082 32.968 62.0935 33.288C61.3895 33.608 60.5415 33.768 59.5495 33.768H56.0935L57.0215 32.792V37H54.9415ZM57.0215 33.016L56.0935 32.008H59.4535C60.3708 32.008 61.0588 31.816 61.5175 31.432C61.9868 31.0373 62.2215 30.488 62.2215 29.784C62.2215 29.0693 61.9868 28.52 61.5175 28.136C61.0588 27.752 60.3708 27.56 59.4535 27.56H56.0935L57.0215 26.536V33.016ZM68.3146 30.456H73.8826V32.168H68.3146V30.456ZM68.4746 35.256H74.7946V37H66.3946V25.8H74.5706V27.544H68.4746V35.256ZM77.1134 37V25.8H79.1934V35.24H85.0494V37H77.1134ZM88.6115 30.456H94.1795V32.168H88.6115V30.456ZM88.7715 35.256H95.0915V37H86.6915V25.8H94.8675V27.544H88.7715V35.256ZM96.5623 37V35.608L103.794 26.776L104.034 27.56H96.6743V25.8H105.906V27.192L98.6743 36.024L98.4183 35.24H106.114V37H96.5623ZM107.255 33.384V31.72H111.655V33.384H107.255ZM114.035 37V25.8H115.747L122.771 34.424H121.923V25.8H123.987V37H122.275L115.251 28.376H116.099V37H114.035ZM132.236 37.16C131.362 37.16 130.556 37.016 129.82 36.728C129.084 36.44 128.444 36.04 127.9 35.528C127.356 35.0053 126.935 34.3973 126.636 33.704C126.338 33 126.188 32.232 126.188 31.4C126.188 30.568 126.338 29.8053 126.636 29.112C126.935 28.408 127.356 27.8 127.9 27.288C128.444 26.7653 129.084 26.36 129.82 26.072C130.556 25.784 131.356 25.64 132.22 25.64C133.095 25.64 133.895 25.784 134.62 26.072C135.356 26.36 135.996 26.7653 136.54 27.288C137.084 27.8 137.506 28.408 137.804 29.112C138.103 29.8053 138.252 30.568 138.252 31.4C138.252 32.232 138.103 33 137.804 33.704C137.506 34.408 137.084 35.016 136.54 35.528C135.996 36.04 135.356 36.44 134.62 36.728C133.895 37.016 133.1 37.16 132.236 37.16ZM132.22 35.336C132.786 35.336 133.308 35.24 133.788 35.048C134.268 34.856 134.684 34.584 135.036 34.232C135.388 33.8693 135.66 33.4533 135.852 32.984C136.055 32.504 136.156 31.976 136.156 31.4C136.156 30.824 136.055 30.3013 135.852 29.832C135.66 29.352 135.388 28.936 135.036 28.584C134.684 28.2213 134.268 27.944 133.788 27.752C133.308 27.56 132.786 27.464 132.22 27.464C131.655 27.464 131.132 27.56 130.652 27.752C130.183 27.944 129.767 28.2213 129.404 28.584C129.052 28.936 128.775 29.352 128.572 29.832C128.38 30.3013 128.284 30.824 128.284 31.4C128.284 31.9653 128.38 32.488 128.572 32.968C128.775 33.448 129.052 33.8693 129.404 34.232C129.756 34.584 130.172 34.856 130.652 35.048C131.132 35.24 131.655 35.336 132.22 35.336ZM145.273 37.16C143.737 37.16 142.532 36.728 141.657 35.864C140.793 35 140.361 33.752 140.361 32.12V25.8H142.441V32.04C142.441 33.192 142.686 34.0293 143.177 34.552C143.678 35.0747 144.382 35.336 145.289 35.336C146.196 35.336 146.894 35.0747 147.385 34.552C147.876 34.0293 148.121 33.192 148.121 32.04V25.8H150.169V32.12C150.169 33.752 149.732 35 148.857 35.864C147.993 36.728 146.798 37.16 145.273 37.16ZM156.554 37.16C155.679 37.16 154.842 37.0373 154.042 36.792C153.242 36.536 152.607 36.2107 152.138 35.816L152.858 34.2C153.306 34.552 153.861 34.8453 154.522 35.08C155.183 35.3147 155.861 35.432 156.554 35.432C157.141 35.432 157.615 35.368 157.978 35.24C158.341 35.112 158.607 34.9413 158.778 34.728C158.949 34.504 159.034 34.2533 159.034 33.976C159.034 33.6347 158.911 33.3627 158.666 33.16C158.421 32.9467 158.101 32.7813 157.706 32.664C157.322 32.536 156.89 32.4187 156.41 32.312C155.941 32.2053 155.466 32.0827 154.986 31.944C154.517 31.7947 154.085 31.608 153.69 31.384C153.306 31.1493 152.991 30.84 152.746 30.456C152.501 30.072 152.378 29.5813 152.378 28.984C152.378 28.376 152.538 27.8213 152.858 27.32C153.189 26.808 153.685 26.4027 154.346 26.104C155.018 25.7947 155.866 25.64 156.89 25.64C157.562 25.64 158.229 25.7253 158.89 25.896C159.551 26.0667 160.127 26.312 160.618 26.632L159.962 28.248C159.461 27.9493 158.943 27.7307 158.41 27.592C157.877 27.4427 157.365 27.368 156.874 27.368C156.298 27.368 155.829 27.4373 155.466 27.576C155.114 27.7147 154.853 27.896 154.682 28.12C154.522 28.344 154.442 28.6 154.442 28.888C154.442 29.2293 154.559 29.5067 154.794 29.72C155.039 29.9227 155.354 30.0827 155.738 30.2C156.133 30.3173 156.57 30.4347 157.05 30.552C157.53 30.6587 158.005 30.7813 158.474 30.92C158.954 31.0587 159.386 31.24 159.77 31.464C160.165 31.688 160.479 31.992 160.714 32.376C160.959 32.76 161.082 33.2453 161.082 33.832C161.082 34.4293 160.917 34.984 160.586 35.496C160.266 35.9973 159.77 36.4027 159.098 36.712C158.426 37.0107 157.578 37.16 156.554 37.16ZM167.503 33.288L167.118 25.8H169.487L169.087 33.288H167.503ZM168.303 37.112C167.929 37.112 167.62 36.9893 167.375 36.744C167.129 36.4987 167.007 36.2053 167.007 35.864C167.007 35.5227 167.129 35.2347 167.375 35C167.62 34.7547 167.929 34.632 168.303 34.632C168.676 34.632 168.98 34.7547 169.215 35C169.449 35.2347 169.567 35.5227 169.567 35.864C169.567 36.2053 169.449 36.4987 169.215 36.744C168.98 36.9893 168.676 37.112 168.303 37.112Z" fill="#13438C"/>
<path d="M31.68 67V55.8H36.4C37.5947 55.8 38.6453 56.0347 39.552 56.504C40.4693 56.9733 41.1787 57.6293 41.68 58.472C42.192 59.3147 42.448 60.2907 42.448 61.4C42.448 62.5093 42.192 63.4853 41.68 64.328C41.1787 65.1707 40.4693 65.8267 39.552 66.296C38.6453 66.7653 37.5947 67 36.4 67H31.68ZM33.28 65.608H36.304C37.232 65.608 38.032 65.432 38.704 65.08C39.3867 64.728 39.9147 64.2373 40.288 63.608C40.6613 62.968 40.848 62.232 40.848 61.4C40.848 60.5573 40.6613 59.8213 40.288 59.192C39.9147 58.5627 39.3867 58.072 38.704 57.72C38.032 57.368 37.232 57.192 36.304 57.192H33.28V65.608ZM48.2428 67.096C47.5174 67.096 46.8774 66.9627 46.3228 66.696C45.7788 66.4293 45.3521 66.024 45.0428 65.48C44.7441 64.9253 44.5948 64.232 44.5948 63.4V58.52H46.1308V63.224C46.1308 64.056 46.3281 64.68 46.7228 65.096C47.1281 65.512 47.6934 65.72 48.4188 65.72C48.9521 65.72 49.4161 65.6133 49.8108 65.4C50.2054 65.176 50.5094 64.856 50.7228 64.44C50.9361 64.0133 51.0428 63.5013 51.0428 62.904V58.52H52.5788V67H51.1228V64.712L51.3628 65.32C51.0854 65.8853 50.6694 66.3227 50.1148 66.632C49.5601 66.9413 48.9361 67.096 48.2428 67.096ZM59.7998 67V55.128H61.3358V67H59.7998ZM67.8365 67.096C67.1112 67.096 66.4712 66.9627 65.9165 66.696C65.3725 66.4293 64.9458 66.024 64.6365 65.48C64.3378 64.9253 64.1885 64.232 64.1885 63.4V58.52H65.7245V63.224C65.7245 64.056 65.9218 64.68 66.3165 65.096C66.7218 65.512 67.2872 65.72 68.0125 65.72C68.5458 65.72 69.0098 65.6133 69.4045 65.4C69.7992 65.176 70.1032 64.856 70.3165 64.44C70.5298 64.0133 70.6365 63.5013 70.6365 62.904V58.52H72.1725V67H70.7165V64.712L70.9565 65.32C70.6792 65.8853 70.2632 66.3227 69.7085 66.632C69.1538 66.9413 68.5298 67.096 67.8365 67.096ZM79.6246 58.44C80.318 58.44 80.926 58.5733 81.4486 58.84C81.982 59.1067 82.398 59.512 82.6966 60.056C82.9953 60.6 83.1446 61.288 83.1446 62.12V67H81.6086V62.296C81.6086 61.4747 81.406 60.856 81.0006 60.44C80.606 60.024 80.046 59.816 79.3206 59.816C78.7766 59.816 78.302 59.9227 77.8966 60.136C77.4913 60.3493 77.1766 60.664 76.9526 61.08C76.7393 61.496 76.6326 62.0133 76.6326 62.632V67H75.0966V58.52H76.5686V60.808L76.3286 60.2C76.606 59.6453 77.0326 59.2133 77.6086 58.904C78.1846 58.5947 78.8566 58.44 79.6246 58.44ZM89.4913 67.096C88.6699 67.096 87.9339 66.9147 87.2833 66.552C86.6433 66.1893 86.1366 65.6827 85.7633 65.032C85.3899 64.3813 85.2033 63.624 85.2033 62.76C85.2033 61.896 85.3899 61.144 85.7633 60.504C86.1366 59.8533 86.6433 59.3467 87.2833 58.984C87.9339 58.6213 88.6699 58.44 89.4913 58.44C90.2059 58.44 90.8513 58.6 91.4273 58.92C92.0033 59.24 92.4619 59.72 92.8033 60.36C93.1553 61 93.3313 61.8 93.3313 62.76C93.3313 63.72 93.1606 64.52 92.8193 65.16C92.4886 65.8 92.0353 66.2853 91.4593 66.616C90.8833 66.936 90.2273 67.096 89.4913 67.096ZM89.6193 65.752C90.1526 65.752 90.6326 65.6293 91.0593 65.384C91.4966 65.1387 91.8379 64.792 92.0833 64.344C92.3393 63.8853 92.4673 63.3573 92.4673 62.76C92.4673 62.152 92.3393 61.6293 92.0833 61.192C91.8379 60.744 91.4966 60.3973 91.0593 60.152C90.6326 59.9067 90.1526 59.784 89.6193 59.784C89.0753 59.784 88.5899 59.9067 88.1633 60.152C87.7366 60.3973 87.3953 60.744 87.1393 61.192C86.8833 61.6293 86.7553 62.152 86.7553 62.76C86.7553 63.3573 86.8833 63.8853 87.1393 64.344C87.3953 64.792 87.7366 65.1387 88.1633 65.384C88.5899 65.6293 89.0753 65.752 89.6193 65.752ZM92.5153 67V64.712L92.6112 62.744L92.4513 60.776V55.128H93.9873V67H92.5153ZM96.8935 67V58.52H98.4295V67H96.8935ZM97.6615 56.888C97.3628 56.888 97.1122 56.792 96.9095 56.6C96.7175 56.408 96.6215 56.1733 96.6215 55.896C96.6215 55.608 96.7175 55.368 96.9095 55.176C97.1122 54.984 97.3628 54.888 97.6615 54.888C97.9602 54.888 98.2055 54.984 98.3975 55.176C98.6002 55.3573 98.7015 55.5867 98.7015 55.864C98.7015 56.152 98.6055 56.3973 98.4135 56.6C98.2215 56.792 97.9708 56.888 97.6615 56.888ZM110.923 67V65.208L110.843 64.872V61.816C110.843 61.1653 110.651 60.664 110.267 60.312C109.894 59.9493 109.328 59.768 108.571 59.768C108.07 59.768 107.579 59.8533 107.099 60.024C106.619 60.184 106.214 60.4027 105.883 60.68L105.243 59.528C105.68 59.176 106.203 58.9093 106.811 58.728C107.43 58.536 108.075 58.44 108.747 58.44C109.91 58.44 110.806 58.7227 111.435 59.288C112.064 59.8533 112.379 60.7173 112.379 61.88V67H110.923ZM108.139 67.096C107.51 67.096 106.955 66.9893 106.475 66.776C106.006 66.5627 105.643 66.2693 105.387 65.896C105.131 65.512 105.003 65.08 105.003 64.6C105.003 64.1413 105.11 63.7253 105.323 63.352C105.547 62.9787 105.904 62.68 106.395 62.456C106.896 62.232 107.568 62.12 108.411 62.12H111.099V63.224H108.475C107.707 63.224 107.19 63.352 106.923 63.608C106.656 63.864 106.523 64.1733 106.523 64.536C106.523 64.952 106.688 65.288 107.019 65.544C107.35 65.7893 107.808 65.912 108.395 65.912C108.971 65.912 109.472 65.784 109.899 65.528C110.336 65.272 110.651 64.8987 110.843 64.408L111.147 65.464C110.944 65.9653 110.587 66.3653 110.075 66.664C109.563 66.952 108.918 67.096 108.139 67.096ZM118.79 67.096C118.064 67.096 117.424 66.9627 116.87 66.696C116.326 66.4293 115.899 66.024 115.59 65.48C115.291 64.9253 115.142 64.232 115.142 63.4V58.52H116.678V63.224C116.678 64.056 116.875 64.68 117.27 65.096C117.675 65.512 118.24 65.72 118.966 65.72C119.499 65.72 119.963 65.6133 120.358 65.4C120.752 65.176 121.056 64.856 121.27 64.44C121.483 64.0133 121.59 63.5013 121.59 62.904V58.52H123.126V67H121.67V64.712L121.91 65.32C121.632 65.8853 121.216 66.3227 120.662 66.632C120.107 66.9413 119.483 67.096 118.79 67.096ZM132.571 67L128.859 58.52H130.459L133.755 66.2H132.987L136.347 58.52H137.851L134.139 67H132.571ZM142.826 67.096C141.919 67.096 141.119 66.9093 140.426 66.536C139.743 66.1627 139.21 65.6507 138.826 65C138.452 64.3493 138.266 63.6027 138.266 62.76C138.266 61.9173 138.447 61.1707 138.81 60.52C139.183 59.8693 139.69 59.3627 140.33 59C140.98 58.6267 141.711 58.44 142.522 58.44C143.343 58.44 144.068 58.6213 144.698 58.984C145.327 59.3467 145.818 59.8587 146.17 60.52C146.532 61.1707 146.714 61.9333 146.714 62.808C146.714 62.872 146.708 62.9467 146.698 63.032C146.698 63.1173 146.692 63.1973 146.682 63.272H139.466V62.168H145.882L145.258 62.552C145.268 62.008 145.156 61.5227 144.922 61.096C144.687 60.6693 144.362 60.3387 143.946 60.104C143.54 59.8587 143.066 59.736 142.522 59.736C141.988 59.736 141.514 59.8587 141.098 60.104C140.682 60.3387 140.356 60.6747 140.122 61.112C139.887 61.5387 139.77 62.0293 139.77 62.584V62.84C139.77 63.4053 139.898 63.912 140.154 64.36C140.42 64.7973 140.788 65.1387 141.258 65.384C141.727 65.6293 142.266 65.752 142.874 65.752C143.375 65.752 143.828 65.6667 144.234 65.496C144.65 65.3253 145.012 65.0693 145.322 64.728L146.17 65.72C145.786 66.168 145.306 66.5093 144.73 66.744C144.164 66.9787 143.53 67.096 142.826 67.096ZM153.375 58.44C154.068 58.44 154.676 58.5733 155.199 58.84C155.732 59.1067 156.148 59.512 156.447 60.056C156.745 60.6 156.895 61.288 156.895 62.12V67H155.359V62.296C155.359 61.4747 155.156 60.856 154.751 60.44C154.356 60.024 153.796 59.816 153.071 59.816C152.527 59.816 152.052 59.9227 151.647 60.136C151.241 60.3493 150.927 60.664 150.703 61.08C150.489 61.496 150.383 62.0133 150.383 62.632V67H148.847V58.52H150.319V60.808L150.079 60.2C150.356 59.6453 150.783 59.2133 151.359 58.904C151.935 58.5947 152.607 58.44 153.375 58.44ZM163.241 67.096C162.42 67.096 161.684 66.9147 161.033 66.552C160.393 66.1893 159.887 65.6827 159.513 65.032C159.14 64.3813 158.953 63.624 158.953 62.76C158.953 61.896 159.14 61.144 159.513 60.504C159.887 59.8533 160.393 59.3467 161.033 58.984C161.684 58.6213 162.42 58.44 163.241 58.44C163.956 58.44 164.601 58.6 165.177 58.92C165.753 59.24 166.212 59.72 166.553 60.36C166.905 61 167.081 61.8 167.081 62.76C167.081 63.72 166.911 64.52 166.569 65.16C166.239 65.8 165.785 66.2853 165.209 66.616C164.633 66.936 163.977 67.096 163.241 67.096ZM163.369 65.752C163.903 65.752 164.383 65.6293 164.809 65.384C165.247 65.1387 165.588 64.792 165.833 64.344C166.089 63.8853 166.217 63.3573 166.217 62.76C166.217 62.152 166.089 61.6293 165.833 61.192C165.588 60.744 165.247 60.3973 164.809 60.152C164.383 59.9067 163.903 59.784 163.369 59.784C162.825 59.784 162.34 59.9067 161.913 60.152C161.487 60.3973 161.145 60.744 160.889 61.192C160.633 61.6293 160.505 62.152 160.505 62.76C160.505 63.3573 160.633 63.8853 160.889 64.344C161.145 64.792 161.487 65.1387 161.913 65.384C162.34 65.6293 162.825 65.752 163.369 65.752ZM166.265 67V64.712L166.361 62.744L166.201 60.776V55.128H167.737V67H166.265ZM170.644 67V58.52H172.116V60.824L171.972 60.248C172.206 59.6613 172.601 59.2133 173.156 58.904C173.71 58.5947 174.393 58.44 175.204 58.44V59.928C175.14 59.9173 175.076 59.912 175.012 59.912C174.958 59.912 174.905 59.912 174.852 59.912C174.03 59.912 173.38 60.1573 172.9 60.648C172.42 61.1387 172.18 61.848 172.18 62.776V67H170.644ZM180.795 67.096C179.888 67.096 179.088 66.9093 178.395 66.536C177.712 66.1627 177.179 65.6507 176.795 65C176.421 64.3493 176.235 63.6027 176.235 62.76C176.235 61.9173 176.416 61.1707 176.779 60.52C177.152 59.8693 177.659 59.3627 178.299 59C178.949 58.6267 179.68 58.44 180.491 58.44C181.312 58.44 182.037 58.6213 182.667 58.984C183.296 59.3467 183.787 59.8587 184.139 60.52C184.501 61.1707 184.683 61.9333 184.683 62.808C184.683 62.872 184.677 62.9467 184.667 63.032C184.667 63.1173 184.661 63.1973 184.651 63.272H177.435V62.168H183.851L183.227 62.552C183.237 62.008 183.125 61.5227 182.891 61.096C182.656 60.6693 182.331 60.3387 181.915 60.104C181.509 59.8587 181.035 59.736 180.491 59.736C179.957 59.736 179.483 59.8587 179.067 60.104C178.651 60.3387 178.325 60.6747 178.091 61.112C177.856 61.5387 177.739 62.0293 177.739 62.584V62.84C177.739 63.4053 177.867 63.912 178.123 64.36C178.389 64.7973 178.757 65.1387 179.227 65.384C179.696 65.6293 180.235 65.752 180.843 65.752C181.344 65.752 181.797 65.6667 182.203 65.496C182.619 65.3253 182.981 65.0693 183.291 64.728L184.139 65.72C183.755 66.168 183.275 66.5093 182.699 66.744C182.133 66.9787 181.499 67.096 180.795 67.096ZM190.319 67.096C189.498 67.096 188.762 66.9147 188.111 66.552C187.471 66.1893 186.965 65.6827 186.591 65.032C186.218 64.3813 186.031 63.624 186.031 62.76C186.031 61.896 186.218 61.144 186.591 60.504C186.965 59.8533 187.471 59.3467 188.111 58.984C188.762 58.6213 189.498 58.44 190.319 58.44C191.034 58.44 191.679 58.6 192.255 58.92C192.831 59.24 193.29 59.72 193.631 60.36C193.983 61 194.159 61.8 194.159 62.76C194.159 63.72 193.989 64.52 193.647 65.16C193.317 65.8 192.863 66.2853 192.287 66.616C191.711 66.936 191.055 67.096 190.319 67.096ZM190.447 65.752C190.981 65.752 191.461 65.6293 191.887 65.384C192.325 65.1387 192.666 64.792 192.911 64.344C193.167 63.8853 193.295 63.3573 193.295 62.76C193.295 62.152 193.167 61.6293 192.911 61.192C192.666 60.744 192.325 60.3973 191.887 60.152C191.461 59.9067 190.981 59.784 190.447 59.784C189.903 59.784 189.418 59.9067 188.991 60.152C188.565 60.3973 188.223 60.744 187.967 61.192C187.711 61.6293 187.583 62.152 187.583 62.76C187.583 63.3573 187.711 63.8853 187.967 64.344C188.223 64.792 188.565 65.1387 188.991 65.384C189.418 65.6293 189.903 65.752 190.447 65.752ZM193.343 67V64.712L193.439 62.744L193.279 60.776V55.128H194.815V67H193.343ZM197.722 67V58.52H199.258V67H197.722ZM198.49 56.888C198.191 56.888 197.94 56.792 197.738 56.6C197.546 56.408 197.45 56.1733 197.45 55.896C197.45 55.608 197.546 55.368 197.738 55.176C197.94 54.984 198.191 54.888 198.49 54.888C198.788 54.888 199.034 54.984 199.226 55.176C199.428 55.3573 199.53 55.5867 199.53 55.864C199.53 56.152 199.434 56.3973 199.242 56.6C199.05 56.792 198.799 56.888 198.49 56.888ZM205.031 63.144V62.072H213.031V63.144H205.031ZM222.464 67.128C221.557 67.128 220.773 66.9947 220.112 66.728C219.451 66.4613 218.939 66.0827 218.576 65.592C218.213 65.0907 218.032 64.504 218.032 63.832C218.032 63.1707 218.203 62.6107 218.544 62.152C218.896 61.6827 219.403 61.3307 220.064 61.096C220.725 60.8507 221.525 60.728 222.464 60.728C223.403 60.728 224.203 60.8507 224.864 61.096C225.536 61.3307 226.048 61.6827 226.4 62.152C226.752 62.6213 226.928 63.1813 226.928 63.832C226.928 64.504 226.747 65.0907 226.384 65.592C226.021 66.0827 225.504 66.4613 224.832 66.728C224.16 66.9947 223.371 67.128 222.464 67.128ZM222.464 65.832C223.36 65.832 224.059 65.6507 224.56 65.288C225.072 64.9147 225.328 64.4133 225.328 63.784C225.328 63.1653 225.072 62.68 224.56 62.328C224.059 61.9653 223.36 61.784 222.464 61.784C221.579 61.784 220.885 61.9653 220.384 62.328C219.883 62.68 219.632 63.1653 219.632 63.784C219.632 64.4133 219.883 64.9147 220.384 65.288C220.885 65.6507 221.579 65.832 222.464 65.832ZM222.464 61.592C221.611 61.592 220.885 61.48 220.288 61.256C219.691 61.0213 219.232 60.6907 218.912 60.264C218.592 59.8267 218.432 59.3093 218.432 58.712C218.432 58.0827 218.597 57.544 218.928 57.096C219.269 56.6373 219.744 56.2853 220.352 56.04C220.96 55.7947 221.664 55.672 222.464 55.672C223.275 55.672 223.984 55.7947 224.592 56.04C225.2 56.2853 225.675 56.6373 226.016 57.096C226.357 57.544 226.528 58.0827 226.528 58.712C226.528 59.3093 226.368 59.8267 226.048 60.264C225.728 60.6907 225.264 61.0213 224.656 61.256C224.048 61.48 223.317 61.592 222.464 61.592ZM222.464 60.568C223.243 60.568 223.851 60.408 224.288 60.088C224.736 59.768 224.96 59.3307 224.96 58.776C224.96 58.2107 224.731 57.768 224.272 57.448C223.813 57.128 223.211 56.968 222.464 56.968C221.717 56.968 221.12 57.128 220.672 57.448C220.235 57.768 220.016 58.2107 220.016 58.776C220.016 59.3307 220.229 59.768 220.656 60.088C221.093 60.408 221.696 60.568 222.464 60.568ZM233.609 58.44C234.302 58.44 234.91 58.5733 235.433 58.84C235.966 59.1067 236.382 59.512 236.681 60.056C236.98 60.6 237.129 61.288 237.129 62.12V67H235.593V62.296C235.593 61.4747 235.39 60.856 234.985 60.44C234.59 60.024 234.03 59.816 233.305 59.816C232.761 59.816 232.286 59.9227 231.881 60.136C231.476 60.3493 231.161 60.664 230.937 61.08C230.724 61.496 230.617 62.0133 230.617 62.632V67H229.081V55.128H230.617V60.808L230.313 60.2C230.59 59.6453 231.017 59.2133 231.593 58.904C232.169 58.5947 232.841 58.44 233.609 58.44ZM36.72 87V85.208L36.64 84.872V81.816C36.64 81.1653 36.448 80.664 36.064 80.312C35.6907 79.9493 35.1253 79.768 34.368 79.768C33.8667 79.768 33.376 79.8533 32.896 80.024C32.416 80.184 32.0107 80.4027 31.68 80.68L31.04 79.528C31.4773 79.176 32 78.9093 32.608 78.728C33.2267 78.536 33.872 78.44 34.544 78.44C35.7067 78.44 36.6027 78.7227 37.232 79.288C37.8613 79.8533 38.176 80.7173 38.176 81.88V87H36.72ZM33.936 87.096C33.3067 87.096 32.752 86.9893 32.272 86.776C31.8027 86.5627 31.44 86.2693 31.184 85.896C30.928 85.512 30.8 85.08 30.8 84.6C30.8 84.1413 30.9067 83.7253 31.12 83.352C31.344 82.9787 31.7013 82.68 32.192 82.456C32.6933 82.232 33.3653 82.12 34.208 82.12H36.896V83.224H34.272C33.504 83.224 32.9867 83.352 32.72 83.608C32.4533 83.864 32.32 84.1733 32.32 84.536C32.32 84.952 32.4853 85.288 32.816 85.544C33.1467 85.7893 33.6053 85.912 34.192 85.912C34.768 85.912 35.2693 85.784 35.696 85.528C36.1333 85.272 36.448 84.8987 36.64 84.408L36.944 85.464C36.7413 85.9653 36.384 86.3653 35.872 86.664C35.36 86.952 34.7147 87.096 33.936 87.096ZM34.416 77.288L31.728 75.208H33.68L35.856 77.288H34.416ZM46.5154 87V76.44L47.2034 77.192H43.9874V75.8H48.0994V87H46.5154ZM54.1813 75.672C55.1946 75.672 56.0479 75.8907 56.7413 76.328C57.4453 76.7653 57.9786 77.4 58.3413 78.232C58.7039 79.0533 58.8853 80.0613 58.8853 81.256C58.8853 82.5253 58.6613 83.5973 58.2133 84.472C57.7653 85.3467 57.1466 86.008 56.3573 86.456C55.5679 86.904 54.6453 87.128 53.5893 87.128C53.0666 87.128 52.5599 87.0747 52.0693 86.968C51.5893 86.8613 51.1679 86.696 50.8053 86.472L51.4133 85.224C51.7119 85.416 52.0426 85.5547 52.4053 85.64C52.7786 85.7147 53.1679 85.752 53.5733 85.752C54.7039 85.752 55.6053 85.4 56.2773 84.696C56.9493 83.9813 57.2853 82.9253 57.2853 81.528C57.2853 81.304 57.2746 81.0373 57.2533 80.728C57.2319 80.4187 57.1839 80.1147 57.1093 79.816L57.6373 80.36C57.4879 80.8507 57.2373 81.2667 56.8853 81.608C56.5439 81.9387 56.1279 82.1893 55.6373 82.36C55.1573 82.52 54.6293 82.6 54.0533 82.6C53.3173 82.6 52.6613 82.4613 52.0853 82.184C51.5093 81.9067 51.0559 81.5173 50.7253 81.016C50.3946 80.504 50.2293 79.9013 50.2293 79.208C50.2293 78.4827 50.3999 77.8587 50.7413 77.336C51.0933 76.8027 51.5679 76.392 52.1653 76.104C52.7733 75.816 53.4453 75.672 54.1813 75.672ZM54.2453 76.968C53.7653 76.968 53.3386 77.0587 52.9653 77.24C52.5919 77.4213 52.2986 77.672 52.0853 77.992C51.8826 78.312 51.7812 78.696 51.7812 79.144C51.7812 79.8053 52.0106 80.3333 52.4693 80.728C52.9279 81.112 53.5466 81.304 54.3253 81.304C54.8373 81.304 55.2853 81.208 55.6693 81.016C56.0639 80.824 56.3679 80.5627 56.5813 80.232C56.8053 79.9013 56.9173 79.5333 56.9173 79.128C56.9173 78.7333 56.8159 78.376 56.6133 78.056C56.4106 77.736 56.1119 77.4747 55.7173 77.272C55.3226 77.0693 54.8319 76.968 54.2453 76.968ZM65.6403 78.44C66.3336 78.44 66.9416 78.5733 67.4643 78.84C67.9976 79.1067 68.4136 79.512 68.7123 80.056C69.0109 80.6 69.1603 81.288 69.1603 82.12V87H67.6243V82.296C67.6243 81.4747 67.4216 80.856 67.0163 80.44C66.6216 80.024 66.0616 79.816 65.3363 79.816C64.7923 79.816 64.3176 79.9227 63.9123 80.136C63.5069 80.3493 63.1923 80.664 62.9683 81.08C62.7549 81.496 62.6483 82.0133 62.6483 82.632V87H61.1123V75.128H62.6483V80.808L62.3443 80.2C62.6216 79.6453 63.0483 79.2133 63.6243 78.904C64.2003 78.5947 64.8723 78.44 65.6403 78.44Z" fill="#777D8C"/>
<rect x="252" y="22" width="242.61" height="42.41" stroke="#777777" stroke-width="2"/>
<path d="M259.872 47V39.8H261.584V47H259.872ZM257.04 44.2V42.6H264.416V44.2H257.04ZM266.158 46.456V45.016L271.086 37.8H273.342L268.414 45.016L267.406 44.696H275.79V46.456H266.158ZM271.87 49V46.456L271.966 44.696V42.536H273.854V49H271.87ZM283.713 48.184L282.785 47.256H286.177V49H278.849V47.256H282.545L281.617 48.184V38.6L282.529 39.544H279.041V37.8H283.713V48.184ZM295.594 49L300.57 38.632L301.098 39.56H294.282L295.274 38.552V41.464H293.338V37.8H302.522V39.192L297.786 49H295.594ZM309.485 49.16C308.45 49.16 307.559 48.9467 306.813 48.52C306.066 48.0933 305.49 47.4693 305.085 46.648C304.69 45.8267 304.493 44.8133 304.493 43.608C304.493 42.7227 304.626 41.9173 304.893 41.192C305.159 40.456 305.549 39.8267 306.061 39.304C306.573 38.7707 307.186 38.36 307.901 38.072C308.626 37.784 309.437 37.64 310.333 37.64C310.887 37.64 311.426 37.704 311.949 37.832C312.471 37.9493 312.914 38.1253 313.277 38.36L312.509 39.976C312.21 39.7627 311.874 39.6133 311.501 39.528C311.127 39.432 310.738 39.384 310.333 39.384C309.586 39.384 308.925 39.5333 308.349 39.832C307.783 40.1307 307.341 40.568 307.021 41.144C306.701 41.72 306.541 42.424 306.541 43.256C306.541 43.48 306.551 43.7307 306.573 44.008C306.605 44.2853 306.647 44.5573 306.701 44.824L306.157 44.024C306.295 43.6507 306.535 43.32 306.877 43.032C307.218 42.7333 307.634 42.504 308.125 42.344C308.626 42.1733 309.175 42.088 309.773 42.088C310.541 42.088 311.229 42.232 311.837 42.52C312.445 42.808 312.919 43.2133 313.261 43.736C313.613 44.248 313.789 44.8453 313.789 45.528C313.789 46.2533 313.602 46.888 313.229 47.432C312.855 47.976 312.343 48.4027 311.693 48.712C311.053 49.0107 310.317 49.16 309.485 49.16ZM309.421 47.528C309.858 47.528 310.247 47.4533 310.589 47.304C310.941 47.144 311.213 46.92 311.405 46.632C311.607 46.344 311.709 46.008 311.709 45.624C311.709 45.24 311.613 44.9093 311.421 44.632C311.229 44.344 310.951 44.12 310.589 43.96C310.237 43.8 309.826 43.72 309.357 43.72C308.909 43.72 308.503 43.8 308.141 43.96C307.778 44.12 307.49 44.344 307.277 44.632C307.063 44.9093 306.957 45.24 306.957 45.624C306.957 45.944 307.047 46.2533 307.229 46.552C307.421 46.84 307.703 47.0747 308.077 47.256C308.45 47.4373 308.898 47.528 309.421 47.528ZM324.374 49.16C323.83 49.16 323.286 49.1067 322.742 49C322.198 48.904 321.691 48.76 321.222 48.568C320.752 48.376 320.342 48.1413 319.99 47.864L320.87 46.248C321.307 46.5787 321.83 46.8453 322.438 47.048C323.056 47.2507 323.702 47.352 324.374 47.352C324.907 47.352 325.36 47.2827 325.734 47.144C326.107 47.0053 326.39 46.808 326.582 46.552C326.784 46.296 326.886 45.992 326.886 45.64C326.886 45.288 326.79 44.984 326.598 44.728C326.406 44.4613 326.075 44.2587 325.606 44.12C325.136 43.9707 324.491 43.896 323.67 43.896H320.822L321.414 37.8H328.246V39.544H322.166L323.254 38.552L322.822 43.112L321.782 42.136H324.07C325.243 42.136 326.187 42.2853 326.902 42.584C327.627 42.872 328.155 43.2773 328.486 43.8C328.816 44.312 328.982 44.8987 328.982 45.56C328.982 46.2107 328.816 46.808 328.486 47.352C328.155 47.896 327.648 48.3333 326.966 48.664C326.294 48.9947 325.43 49.16 324.374 49.16ZM335.577 49.16C335.033 49.16 334.489 49.1067 333.945 49C333.401 48.904 332.894 48.76 332.425 48.568C331.956 48.376 331.545 48.1413 331.193 47.864L332.073 46.248C332.51 46.5787 333.033 46.8453 333.641 47.048C334.26 47.2507 334.905 47.352 335.577 47.352C336.11 47.352 336.564 47.2827 336.937 47.144C337.31 47.0053 337.593 46.808 337.785 46.552C337.988 46.296 338.089 45.992 338.089 45.64C338.089 45.288 337.993 44.984 337.801 44.728C337.609 44.4613 337.278 44.2587 336.809 44.12C336.34 43.9707 335.694 43.896 334.873 43.896H332.025L332.617 37.8H339.449V39.544H333.369L334.457 38.552L334.025 43.112L332.985 42.136H335.273C336.446 42.136 337.39 42.2853 338.105 42.584C338.83 42.872 339.358 43.2773 339.689 43.8C340.02 44.312 340.185 44.8987 340.185 45.56C340.185 46.2107 340.02 46.808 339.689 47.352C339.358 47.896 338.852 48.3333 338.169 48.664C337.497 48.9947 336.633 49.16 335.577 49.16ZM351.186 49.16C350.279 49.16 349.442 49.048 348.674 48.824C347.917 48.5893 347.287 48.264 346.786 47.848L347.778 46.216C348.205 46.5573 348.69 46.8347 349.234 47.048C349.789 47.2507 350.434 47.352 351.17 47.352C351.959 47.352 352.578 47.2027 353.026 46.904C353.485 46.5947 353.714 46.1787 353.714 45.656C353.714 45.144 353.495 44.7387 353.058 44.44C352.621 44.1413 351.965 43.992 351.09 43.992H350.018V42.568L353.442 38.76L353.714 39.544H347.154V37.8H355.33V39.192L351.922 43L350.866 42.36H351.49C352.887 42.36 353.954 42.6693 354.69 43.288C355.426 43.896 355.794 44.68 355.794 45.64C355.794 46.2693 355.629 46.8507 355.298 47.384C354.967 47.9173 354.461 48.3493 353.778 48.68C353.095 49 352.231 49.16 351.186 49.16ZM363.141 49.16C362.106 49.16 361.216 48.9467 360.469 48.52C359.722 48.0933 359.146 47.4693 358.741 46.648C358.346 45.8267 358.149 44.8133 358.149 43.608C358.149 42.7227 358.282 41.9173 358.549 41.192C358.816 40.456 359.205 39.8267 359.717 39.304C360.229 38.7707 360.842 38.36 361.557 38.072C362.282 37.784 363.093 37.64 363.989 37.64C364.544 37.64 365.082 37.704 365.605 37.832C366.128 37.9493 366.57 38.1253 366.933 38.36L366.165 39.976C365.866 39.7627 365.53 39.6133 365.157 39.528C364.784 39.432 364.394 39.384 363.989 39.384C363.242 39.384 362.581 39.5333 362.005 39.832C361.44 40.1307 360.997 40.568 360.677 41.144C360.357 41.72 360.197 42.424 360.197 43.256C360.197 43.48 360.208 43.7307 360.229 44.008C360.261 44.2853 360.304 44.5573 360.357 44.824L359.813 44.024C359.952 43.6507 360.192 43.32 360.533 43.032C360.874 42.7333 361.29 42.504 361.781 42.344C362.282 42.1733 362.832 42.088 363.429 42.088C364.197 42.088 364.885 42.232 365.493 42.52C366.101 42.808 366.576 43.2133 366.917 43.736C367.269 44.248 367.445 44.8453 367.445 45.528C367.445 46.2533 367.258 46.888 366.885 47.432C366.512 47.976 366 48.4027 365.349 48.712C364.709 49.0107 363.973 49.16 363.141 49.16ZM363.077 47.528C363.514 47.528 363.904 47.4533 364.245 47.304C364.597 47.144 364.869 46.92 365.061 46.632C365.264 46.344 365.365 46.008 365.365 45.624C365.365 45.24 365.269 44.9093 365.077 44.632C364.885 44.344 364.608 44.12 364.245 43.96C363.893 43.8 363.482 43.72 363.013 43.72C362.565 43.72 362.16 43.8 361.797 43.96C361.434 44.12 361.146 44.344 360.933 44.632C360.72 44.9093 360.613 45.24 360.613 45.624C360.613 45.944 360.704 46.2533 360.885 46.552C361.077 46.84 361.36 47.0747 361.733 47.256C362.106 47.4373 362.554 47.528 363.077 47.528ZM379.822 48.184L378.894 47.256H382.286V49H374.958V47.256H378.654L377.726 48.184V38.6L378.638 39.544H375.15V37.8H379.822V48.184ZM389.553 49.16C388.625 49.16 387.804 48.9307 387.089 48.472C386.374 48.0027 385.814 47.3413 385.409 46.488C385.004 45.624 384.801 44.5947 384.801 43.4C384.801 42.1947 385.004 41.1653 385.409 40.312C385.814 39.4587 386.374 38.8027 387.089 38.344C387.804 37.8747 388.625 37.64 389.553 37.64C390.481 37.64 391.302 37.8747 392.017 38.344C392.732 38.8027 393.292 39.4587 393.697 40.312C394.102 41.1653 394.305 42.1947 394.305 43.4C394.305 44.5947 394.102 45.624 393.697 46.488C393.292 47.3413 392.732 48.0027 392.017 48.472C391.302 48.9307 390.481 49.16 389.553 49.16ZM389.553 47.352C390.065 47.352 390.518 47.208 390.913 46.92C391.318 46.6213 391.633 46.184 391.857 45.608C392.092 45.0213 392.209 44.2853 392.209 43.4C392.209 42.5147 392.092 41.784 391.857 41.208C391.633 40.6213 391.324 40.184 390.929 39.896C390.534 39.5973 390.076 39.448 389.553 39.448C389.041 39.448 388.582 39.5973 388.177 39.896C387.782 40.184 387.468 40.6213 387.233 41.208C387.009 41.784 386.897 42.5147 386.897 43.4C386.897 44.2853 387.009 45.0213 387.233 45.608C387.468 46.184 387.782 46.6213 388.177 46.92C388.572 47.208 389.03 47.352 389.553 47.352Z" fill="#777777"/>
<path fill-rule="evenodd" clip-rule="evenodd" d="M485 16C485 14.8954 484.105 14 483 14H397C395.895 14 395 14.8954 395 16V21.527C395 22.1367 395.278 22.713 395.755 23.0924L420.423 42.7089C421.43 43.5096 421.43 45.0389 420.423 45.8397L395.755 65.4561C395.278 65.8356 395 66.4119 395 67.0215V73C395 74.1046 395.895 75 397 75H483C484.105 75 485 74.1046 485 73V16Z" fill="#313131"/>
<path d="M421.544 37.128C421.075 37.128 420.621 37.0747 420.184 36.968C419.747 36.8613 419.387 36.7227 419.104 36.552L419.712 35.176C419.979 35.3307 420.275 35.456 420.6 35.552C420.931 35.6427 421.251 35.688 421.56 35.688C421.741 35.688 421.883 35.6773 421.984 35.656C422.091 35.6293 422.168 35.5947 422.216 35.552C422.264 35.504 422.288 35.448 422.288 35.384C422.288 35.2827 422.232 35.2027 422.12 35.144C422.008 35.0853 421.859 35.0373 421.672 35C421.491 34.9573 421.291 34.9147 421.072 34.872C420.853 34.824 420.632 34.7627 420.408 34.688C420.189 34.6133 419.987 34.5147 419.8 34.392C419.619 34.2693 419.472 34.1093 419.36 33.912C419.248 33.7093 419.192 33.4587 419.192 33.16C419.192 32.8133 419.288 32.4987 419.48 32.216C419.677 31.928 419.968 31.6987 420.352 31.528C420.741 31.3573 421.224 31.272 421.8 31.272C422.179 31.272 422.552 31.312 422.92 31.392C423.288 31.472 423.619 31.5947 423.912 31.76L423.344 33.128C423.067 32.9893 422.797 32.8853 422.536 32.816C422.28 32.7467 422.029 32.712 421.784 32.712C421.603 32.712 421.459 32.728 421.352 32.76C421.245 32.792 421.168 32.8347 421.12 32.888C421.077 32.9413 421.056 33 421.056 33.064C421.056 33.16 421.112 33.2373 421.224 33.296C421.336 33.3493 421.483 33.3947 421.664 33.432C421.851 33.4693 422.053 33.5093 422.272 33.552C422.496 33.5947 422.717 33.6533 422.936 33.728C423.155 33.8027 423.355 33.9013 423.536 34.024C423.723 34.1467 423.872 34.3067 423.984 34.504C424.096 34.7013 424.152 34.9467 424.152 35.24C424.152 35.5813 424.053 35.896 423.856 36.184C423.664 36.4667 423.376 36.696 422.992 36.872C422.608 37.0427 422.125 37.128 421.544 37.128ZM427.074 37.08C426.54 37.08 426.074 36.9813 425.674 36.784C425.279 36.5867 424.972 36.3173 424.754 35.976C424.535 35.6293 424.426 35.24 424.426 34.808C424.426 34.3653 424.532 33.9733 424.746 33.632C424.964 33.2907 425.26 33.024 425.634 32.832C426.012 32.64 426.436 32.544 426.906 32.544C427.338 32.544 427.735 32.6293 428.098 32.8C428.466 32.9707 428.759 33.224 428.978 33.56C429.202 33.896 429.314 34.312 429.314 34.808C429.314 34.872 429.311 34.944 429.306 35.024C429.3 35.0987 429.295 35.168 429.29 35.232H425.922V34.36H428.33L427.65 34.592C427.65 34.4213 427.618 34.2773 427.554 34.16C427.495 34.0373 427.412 33.944 427.306 33.88C427.199 33.8107 427.071 33.776 426.922 33.776C426.772 33.776 426.642 33.8107 426.53 33.88C426.423 33.944 426.34 34.0373 426.282 34.16C426.223 34.2773 426.194 34.4213 426.194 34.592V34.864C426.194 35.0507 426.231 35.2107 426.306 35.344C426.38 35.4773 426.487 35.5787 426.626 35.648C426.764 35.712 426.932 35.744 427.13 35.744C427.332 35.744 427.498 35.7173 427.626 35.664C427.759 35.6107 427.898 35.5307 428.042 35.424L428.986 36.376C428.772 36.6053 428.508 36.7813 428.194 36.904C427.884 37.0213 427.511 37.08 427.074 37.08ZM429.884 37V32.624H431.604V33.944L431.324 33.568C431.458 33.2267 431.671 32.9707 431.964 32.8C432.258 32.6293 432.61 32.544 433.02 32.544V34.144C432.94 34.1333 432.868 34.1253 432.804 34.12C432.746 34.1147 432.684 34.112 432.62 34.112C432.348 34.112 432.124 34.184 431.948 34.328C431.778 34.4667 431.692 34.7093 431.692 35.056V37H429.884ZM434.89 37L433.13 32.624H434.986L436.322 36.176H435.386L436.81 32.624H438.522L436.762 37H434.89ZM438.798 37V32.624H440.606V37H438.798ZM439.702 32.272C439.372 32.272 439.108 32.184 438.91 32.008C438.713 31.832 438.614 31.6133 438.614 31.352C438.614 31.0907 438.713 30.872 438.91 30.696C439.108 30.52 439.372 30.432 439.702 30.432C440.033 30.432 440.297 30.5147 440.494 30.68C440.692 30.8453 440.79 31.0587 440.79 31.32C440.79 31.5973 440.692 31.8267 440.494 32.008C440.297 32.184 440.033 32.272 439.702 32.272ZM443.76 37.08C443.258 37.08 442.813 36.984 442.424 36.792C442.034 36.6 441.728 36.3333 441.504 35.992C441.285 35.6453 441.176 35.2507 441.176 34.808C441.176 34.3653 441.285 33.9733 441.504 33.632C441.728 33.2907 442.034 33.024 442.424 32.832C442.813 32.64 443.258 32.544 443.76 32.544C444.293 32.544 444.749 32.6587 445.128 32.888C445.506 33.1173 445.768 33.4347 445.912 33.84L444.512 34.528C444.421 34.3253 444.309 34.1787 444.176 34.088C444.048 33.9973 443.906 33.952 443.752 33.952C443.618 33.952 443.493 33.984 443.376 34.048C443.264 34.112 443.173 34.208 443.104 34.336C443.04 34.4587 443.008 34.616 443.008 34.808C443.008 35 443.04 35.16 443.104 35.288C443.173 35.416 443.264 35.512 443.376 35.576C443.493 35.64 443.618 35.672 443.752 35.672C443.906 35.672 444.048 35.6267 444.176 35.536C444.309 35.4453 444.421 35.2987 444.512 35.096L445.912 35.784C445.768 36.1893 445.506 36.5067 445.128 36.736C444.749 36.9653 444.293 37.08 443.76 37.08ZM448.707 37.08C448.173 37.08 447.707 36.9813 447.307 36.784C446.912 36.5867 446.605 36.3173 446.387 35.976C446.168 35.6293 446.059 35.24 446.059 34.808C446.059 34.3653 446.165 33.9733 446.379 33.632C446.597 33.2907 446.893 33.024 447.267 32.832C447.645 32.64 448.069 32.544 448.539 32.544C448.971 32.544 449.368 32.6293 449.731 32.8C450.099 32.9707 450.392 33.224 450.611 33.56C450.835 33.896 450.947 34.312 450.947 34.808C450.947 34.872 450.944 34.944 450.939 35.024C450.933 35.0987 450.928 35.168 450.923 35.232H447.555V34.36H449.963L449.283 34.592C449.283 34.4213 449.251 34.2773 449.187 34.16C449.128 34.0373 449.045 33.944 448.939 33.88C448.832 33.8107 448.704 33.776 448.555 33.776C448.405 33.776 448.275 33.8107 448.163 33.88C448.056 33.944 447.973 34.0373 447.915 34.16C447.856 34.2773 447.827 34.4213 447.827 34.592V34.864C447.827 35.0507 447.864 35.2107 447.939 35.344C448.013 35.4773 448.12 35.5787 448.259 35.648C448.397 35.712 448.565 35.744 448.763 35.744C448.965 35.744 449.131 35.7173 449.259 35.664C449.392 35.6107 449.531 35.5307 449.675 35.424L450.619 36.376C450.405 36.6053 450.141 36.7813 449.827 36.904C449.517 37.0213 449.144 37.08 448.707 37.08ZM456.14 38.632C455.708 38.632 455.302 38.5867 454.924 38.496C454.545 38.4053 454.22 38.2693 453.948 38.088L454.556 36.856C454.726 36.9893 454.942 37.0933 455.204 37.168C455.47 37.248 455.721 37.288 455.956 37.288C456.329 37.288 456.596 37.208 456.756 37.048C456.916 36.8933 456.996 36.6693 456.996 36.376V36.008L457.076 34.648L457.084 33.288V32.624H458.804V36.128C458.804 36.976 458.569 37.6053 458.1 38.016C457.63 38.4267 456.977 38.632 456.14 38.632ZM455.788 36.76C455.42 36.76 455.076 36.6747 454.756 36.504C454.436 36.328 454.177 36.0827 453.98 35.768C453.782 35.4533 453.684 35.08 453.684 34.648C453.684 34.216 453.782 33.8427 453.98 33.528C454.177 33.2133 454.436 32.9707 454.756 32.8C455.076 32.6293 455.42 32.544 455.788 32.544C456.166 32.544 456.476 32.6187 456.716 32.768C456.961 32.9173 457.142 33.1493 457.26 33.464C457.377 33.7733 457.436 34.168 457.436 34.648C457.436 35.128 457.377 35.5253 457.26 35.84C457.142 36.1493 456.961 36.3813 456.716 36.536C456.476 36.6853 456.166 36.76 455.788 36.76ZM456.268 35.352C456.412 35.352 456.54 35.3227 456.652 35.264C456.764 35.2053 456.852 35.1227 456.916 35.016C456.98 34.9093 457.012 34.7867 457.012 34.648C457.012 34.504 456.98 34.3813 456.916 34.28C456.852 34.1733 456.764 34.0933 456.652 34.04C456.54 33.9813 456.412 33.952 456.268 33.952C456.129 33.952 456.001 33.9813 455.884 34.04C455.772 34.0933 455.681 34.1733 455.612 34.28C455.548 34.3813 455.516 34.504 455.516 34.648C455.516 34.7867 455.548 34.9093 455.612 35.016C455.681 35.1227 455.772 35.2053 455.884 35.264C456.001 35.3227 456.129 35.352 456.268 35.352ZM459.603 37V32.624H461.323V33.944L461.043 33.568C461.176 33.2267 461.39 32.9707 461.683 32.8C461.976 32.6293 462.328 32.544 462.739 32.544V34.144C462.659 34.1333 462.587 34.1253 462.523 34.12C462.464 34.1147 462.403 34.112 462.339 34.112C462.067 34.112 461.843 34.184 461.667 34.328C461.496 34.4667 461.411 34.7093 461.411 35.056V37H459.603ZM465.657 37V36.224L465.529 36.016V34.544C465.529 34.3307 465.463 34.168 465.329 34.056C465.201 33.944 464.991 33.888 464.697 33.888C464.5 33.888 464.3 33.92 464.097 33.984C463.895 34.0427 463.721 34.1253 463.577 34.232L463.001 33.04C463.257 32.88 463.564 32.7573 463.921 32.672C464.279 32.5867 464.628 32.544 464.969 32.544C465.721 32.544 466.303 32.712 466.713 33.048C467.129 33.384 467.337 33.9173 467.337 34.648V37H465.657ZM464.417 37.08C464.06 37.08 463.761 37.0187 463.521 36.896C463.281 36.7733 463.1 36.6107 462.977 36.408C462.855 36.2 462.793 35.9707 462.793 35.72C462.793 35.4373 462.865 35.1973 463.009 35C463.153 34.8027 463.372 34.6533 463.665 34.552C463.964 34.4507 464.34 34.4 464.793 34.4H465.705V35.272H465.081C464.889 35.272 464.748 35.304 464.657 35.368C464.572 35.4267 464.529 35.5173 464.529 35.64C464.529 35.7413 464.567 35.8267 464.641 35.896C464.721 35.96 464.828 35.992 464.961 35.992C465.084 35.992 465.196 35.96 465.297 35.896C465.404 35.8267 465.481 35.72 465.529 35.576L465.761 36.112C465.692 36.4373 465.545 36.68 465.321 36.84C465.097 37 464.796 37.08 464.417 37.08ZM470.231 37.08C469.628 37.08 469.159 36.936 468.823 36.648C468.487 36.3547 468.319 35.9067 468.319 35.304V31.64H470.127V35.288C470.127 35.4213 470.161 35.5253 470.231 35.6C470.305 35.6747 470.396 35.712 470.503 35.712C470.657 35.712 470.793 35.672 470.911 35.592L471.343 36.848C471.204 36.928 471.036 36.9867 470.839 37.024C470.647 37.0613 470.444 37.08 470.231 37.08ZM467.719 34.184V32.864H471.023V34.184H467.719ZM473.622 37.08C473.276 37.08 472.961 37.0107 472.678 36.872C472.401 36.728 472.182 36.5067 472.022 36.208C471.862 35.904 471.782 35.5147 471.782 35.04V32.624H473.59V34.728C473.59 35.0373 473.641 35.2533 473.742 35.376C473.844 35.4987 473.982 35.56 474.158 35.56C474.265 35.56 474.364 35.5333 474.454 35.48C474.55 35.4213 474.628 35.328 474.686 35.2C474.745 35.0667 474.774 34.8933 474.774 34.68V32.624H476.582V37H474.862V35.736L475.206 36.08C475.052 36.4213 474.83 36.6747 474.542 36.84C474.26 37 473.953 37.08 473.622 37.08ZM477.384 37V32.624H479.192V37H477.384ZM478.288 32.272C477.958 32.272 477.694 32.184 477.496 32.008C477.299 31.832 477.2 31.6133 477.2 31.352C477.2 31.0907 477.299 30.872 477.496 30.696C477.694 30.52 477.958 30.432 478.288 30.432C478.619 30.432 478.883 30.5147 479.08 30.68C479.278 30.8453 479.376 31.0587 479.376 31.32C479.376 31.5973 479.278 31.8267 479.08 32.008C478.883 32.184 478.619 32.272 478.288 32.272ZM482.106 37.08C481.503 37.08 481.034 36.936 480.698 36.648C480.362 36.3547 480.194 35.9067 480.194 35.304V31.64H482.002V35.288C482.002 35.4213 482.036 35.5253 482.106 35.6C482.18 35.6747 482.271 35.712 482.378 35.712C482.532 35.712 482.668 35.672 482.786 35.592L483.218 36.848C483.079 36.928 482.911 36.9867 482.714 37.024C482.522 37.0613 482.319 37.08 482.106 37.08ZM479.594 34.184V32.864H482.898V34.184H479.594Z" fill="white"/>
<path d="M422.76 52.16V48.24H424.2V52.16H422.76ZM421.44 50.88V49.52H425.52V50.88H421.44ZM431.679 53.08C431.301 53.08 430.986 53 430.735 52.84C430.49 52.6747 430.309 52.4267 430.191 52.096C430.074 51.76 430.015 51.3333 430.015 50.816C430.015 50.288 430.069 49.8587 430.175 49.528C430.287 49.192 430.466 48.944 430.711 48.784C430.957 48.624 431.279 48.544 431.679 48.544C432.063 48.544 432.415 48.6373 432.735 48.824C433.055 49.0053 433.311 49.2667 433.503 49.608C433.695 49.944 433.791 50.3467 433.791 50.816C433.791 51.2853 433.695 51.6907 433.503 52.032C433.311 52.368 433.055 52.6267 432.735 52.808C432.415 52.9893 432.063 53.08 431.679 53.08ZM428.759 54.552V48.624H430.479V49.216L430.487 50.816L430.567 52.416V54.552H428.759ZM431.247 51.672C431.381 51.672 431.501 51.64 431.607 51.576C431.714 51.512 431.799 51.416 431.863 51.288C431.927 51.16 431.959 51.0027 431.959 50.816C431.959 50.624 431.927 50.464 431.863 50.336C431.799 50.208 431.714 50.112 431.607 50.048C431.501 49.984 431.381 49.952 431.247 49.952C431.114 49.952 430.994 49.984 430.887 50.048C430.781 50.112 430.695 50.208 430.631 50.336C430.567 50.464 430.535 50.624 430.535 50.816C430.535 51.0027 430.567 51.16 430.631 51.288C430.695 51.416 430.781 51.512 430.887 51.576C430.994 51.64 431.114 51.672 431.247 51.672ZM434.361 53V48.624H436.081V49.944L435.801 49.568C435.934 49.2267 436.148 48.9707 436.441 48.8C436.734 48.6293 437.086 48.544 437.497 48.544V50.144C437.417 50.1333 437.345 50.1253 437.281 50.12C437.222 50.1147 437.161 50.112 437.097 50.112C436.825 50.112 436.601 50.184 436.425 50.328C436.254 50.4667 436.169 50.7093 436.169 51.056V53H434.361ZM438.009 53V48.624H439.817V53H438.009ZM438.913 48.272C438.583 48.272 438.319 48.184 438.121 48.008C437.924 47.832 437.825 47.6133 437.825 47.352C437.825 47.0907 437.924 46.872 438.121 46.696C438.319 46.52 438.583 46.432 438.913 46.432C439.244 46.432 439.508 46.5147 439.705 46.68C439.903 46.8453 440.001 47.0587 440.001 47.32C440.001 47.5973 439.903 47.8267 439.705 48.008C439.508 48.184 439.244 48.272 438.913 48.272ZM440.147 53L442.211 50.296L442.163 51.336L440.195 48.624H442.235L443.203 50.072L442.451 50.128L443.515 48.624H445.411L443.435 51.248V50.248L445.451 53H443.379L442.379 51.456L443.139 51.56L442.107 53H440.147ZM450.093 53.08C449.715 53.08 449.363 52.9893 449.037 52.808C448.717 52.6213 448.461 52.36 448.269 52.024C448.077 51.6827 447.981 51.2773 447.981 50.808C447.981 50.3387 448.077 49.936 448.269 49.6C448.461 49.2587 448.717 48.9973 449.037 48.816C449.363 48.6347 449.715 48.544 450.093 48.544C450.477 48.544 450.792 48.6267 451.037 48.792C451.283 48.952 451.464 49.2 451.581 49.536C451.699 49.8667 451.757 50.2907 451.757 50.808C451.757 51.3307 451.701 51.76 451.589 52.096C451.483 52.432 451.307 52.68 451.061 52.84C450.821 53 450.499 53.08 450.093 53.08ZM450.525 51.672C450.659 51.672 450.779 51.64 450.885 51.576C450.992 51.512 451.077 51.416 451.141 51.288C451.205 51.1547 451.237 50.9947 451.237 50.808C451.237 50.616 451.205 50.4587 451.141 50.336C451.077 50.208 450.992 50.112 450.885 50.048C450.779 49.984 450.659 49.952 450.525 49.952C450.392 49.952 450.272 49.984 450.165 50.048C450.059 50.112 449.973 50.208 449.909 50.336C449.845 50.4587 449.813 50.616 449.813 50.808C449.813 50.9947 449.845 51.1547 449.909 51.288C449.973 51.416 450.059 51.512 450.165 51.576C450.272 51.64 450.392 51.672 450.525 51.672ZM451.293 53V52.408L451.285 50.808L451.205 49.208V47.064H453.013V53H451.293ZM453.694 50.248L454.366 48L454.63 49.008C454.321 49.008 454.067 48.92 453.87 48.744C453.673 48.5627 453.574 48.3173 453.574 48.008C453.574 47.6933 453.673 47.4453 453.87 47.264C454.073 47.0773 454.326 46.984 454.63 46.984C454.934 46.984 455.185 47.0773 455.382 47.264C455.585 47.4453 455.686 47.6933 455.686 48.008C455.686 48.0933 455.678 48.1787 455.662 48.264C455.651 48.3493 455.625 48.4533 455.582 48.576C455.539 48.6933 455.47 48.8533 455.374 49.056L454.814 50.248H453.694ZM458.814 53V52.224L458.686 52.016V50.544C458.686 50.3307 458.619 50.168 458.486 50.056C458.358 49.944 458.147 49.888 457.854 49.888C457.656 49.888 457.456 49.92 457.254 49.984C457.051 50.0427 456.878 50.1253 456.734 50.232L456.158 49.04C456.414 48.88 456.72 48.7573 457.078 48.672C457.435 48.5867 457.784 48.544 458.126 48.544C458.878 48.544 459.459 48.712 459.87 49.048C460.286 49.384 460.494 49.9173 460.494 50.648V53H458.814ZM457.574 53.08C457.216 53.08 456.918 53.0187 456.678 52.896C456.438 52.7733 456.256 52.6107 456.134 52.408C456.011 52.2 455.95 51.9707 455.95 51.72C455.95 51.4373 456.022 51.1973 456.166 51C456.31 50.8027 456.528 50.6533 456.822 50.552C457.12 50.4507 457.496 50.4 457.95 50.4H458.862V51.272H458.238C458.046 51.272 457.904 51.304 457.814 51.368C457.728 51.4267 457.686 51.5173 457.686 51.64C457.686 51.7413 457.723 51.8267 457.798 51.896C457.878 51.96 457.984 51.992 458.118 51.992C458.24 51.992 458.352 51.96 458.454 51.896C458.56 51.8267 458.638 51.72 458.686 51.576L458.918 52.112C458.848 52.4373 458.702 52.68 458.478 52.84C458.254 53 457.952 53.08 457.574 53.08ZM464.195 53.08C463.816 53.08 463.502 53 463.251 52.84C463.006 52.6747 462.824 52.4267 462.707 52.096C462.59 51.76 462.531 51.3333 462.531 50.816C462.531 50.288 462.584 49.8587 462.691 49.528C462.803 49.192 462.982 48.944 463.227 48.784C463.472 48.624 463.795 48.544 464.195 48.544C464.579 48.544 464.931 48.6373 465.251 48.824C465.571 49.0053 465.827 49.2667 466.019 49.608C466.211 49.944 466.307 50.3467 466.307 50.816C466.307 51.2853 466.211 51.6907 466.019 52.032C465.827 52.368 465.571 52.6267 465.251 52.808C464.931 52.9893 464.579 53.08 464.195 53.08ZM461.275 54.552V48.624H462.995V49.216L463.003 50.816L463.083 52.416V54.552H461.275ZM463.763 51.672C463.896 51.672 464.016 51.64 464.123 51.576C464.23 51.512 464.315 51.416 464.379 51.288C464.443 51.16 464.475 51.0027 464.475 50.816C464.475 50.624 464.443 50.464 464.379 50.336C464.315 50.208 464.23 50.112 464.123 50.048C464.016 49.984 463.896 49.952 463.763 49.952C463.63 49.952 463.51 49.984 463.403 50.048C463.296 50.112 463.211 50.208 463.147 50.336C463.083 50.464 463.051 50.624 463.051 50.816C463.051 51.0027 463.083 51.16 463.147 51.288C463.211 51.416 463.296 51.512 463.403 51.576C463.51 51.64 463.63 51.672 463.763 51.672ZM469.797 53.08C469.418 53.08 469.103 53 468.853 52.84C468.607 52.6747 468.426 52.4267 468.309 52.096C468.191 51.76 468.133 51.3333 468.133 50.816C468.133 50.288 468.186 49.8587 468.293 49.528C468.405 49.192 468.583 48.944 468.829 48.784C469.074 48.624 469.397 48.544 469.797 48.544C470.181 48.544 470.533 48.6373 470.853 48.824C471.173 49.0053 471.429 49.2667 471.621 49.608C471.813 49.944 471.909 50.3467 471.909 50.816C471.909 51.2853 471.813 51.6907 471.621 52.032C471.429 52.368 471.173 52.6267 470.853 52.808C470.533 52.9893 470.181 53.08 469.797 53.08ZM466.877 54.552V48.624H468.597V49.216L468.605 50.816L468.685 52.416V54.552H466.877ZM469.365 51.672C469.498 51.672 469.618 51.64 469.725 51.576C469.831 51.512 469.917 51.416 469.981 51.288C470.045 51.16 470.077 51.0027 470.077 50.816C470.077 50.624 470.045 50.464 469.981 50.336C469.917 50.208 469.831 50.112 469.725 50.048C469.618 49.984 469.498 49.952 469.365 49.952C469.231 49.952 469.111 49.984 469.005 50.048C468.898 50.112 468.813 50.208 468.749 50.336C468.685 50.464 468.653 50.624 468.653 50.816C468.653 51.0027 468.685 51.16 468.749 51.288C468.813 51.416 468.898 51.512 469.005 51.576C469.111 51.64 469.231 51.672 469.365 51.672ZM474.894 53.08C474.361 53.08 473.894 52.9813 473.494 52.784C473.099 52.5867 472.793 52.3173 472.574 51.976C472.355 51.6293 472.246 51.24 472.246 50.808C472.246 50.3653 472.353 49.9733 472.566 49.632C472.785 49.2907 473.081 49.024 473.454 48.832C473.833 48.64 474.257 48.544 474.726 48.544C475.158 48.544 475.555 48.6293 475.918 48.8C476.286 48.9707 476.579 49.224 476.798 49.56C477.022 49.896 477.134 50.312 477.134 50.808C477.134 50.872 477.131 50.944 477.126 51.024C477.121 51.0987 477.115 51.168 477.11 51.232H473.742V50.36H476.15L475.47 50.592C475.47 50.4213 475.438 50.2773 475.374 50.16C475.315 50.0373 475.233 49.944 475.126 49.88C475.019 49.8107 474.891 49.776 474.742 49.776C474.593 49.776 474.462 49.8107 474.35 49.88C474.243 49.944 474.161 50.0373 474.102 50.16C474.043 50.2773 474.014 50.4213 474.014 50.592V50.864C474.014 51.0507 474.051 51.2107 474.126 51.344C474.201 51.4773 474.307 51.5787 474.446 51.648C474.585 51.712 474.753 51.744 474.95 51.744C475.153 51.744 475.318 51.7173 475.446 51.664C475.579 51.6107 475.718 51.5307 475.862 51.424L476.806 52.376C476.593 52.6053 476.329 52.7813 476.014 52.904C475.705 53.0213 475.331 53.08 474.894 53.08ZM477.705 53V47.064H479.513V53H477.705Z" fill="white"/>
</svg>
