<?xml version="1.0" encoding="UTF-8"?><svg id="Layer_2" xmlns="http://www.w3.org/2000/svg" viewBox="0 0 927.46 489.97"><defs><style>.cls-1{fill:#1d427d;}</style></defs><g id="Layer_1-2"><g><path class="cls-1" d="M237.93,101.28c-8.28-8.04-17.88-14.68-29.32-18.41-23.57-7.68-44.28-1.73-62.72,13.54-24.16,20-34.36,56.17-24.14,83.47,6.14,16.4,16.9,28.02,34.57,31.01,7.86,1.33,16.18,.23,24.26-.24,1.42-.08,3.55-2.33,3.91-3.91,3.6-15.67,6.92-31.41,10.24-47.15,.49-2.33,1.02-3.88,4.01-3.86,24.14,.11,48.28,.06,72.41,.09,.64,0,1.28,.23,2.56,.47-1.45,7.2-2.8,14.29-4.3,21.34-5.54,25.93-11.05,51.87-16.82,77.75-.5,2.25-2.3,4.84-4.25,6.04-31.09,19.18-65.2,27.85-101.51,27.7-27.79-.11-53.67-6.92-75.51-25.11-21.23-17.68-33.12-40.66-37.53-67.72-4.52-27.76-2.56-55,7.35-81.4,14.31-38.15,38.96-68.06,73.25-90.04C142.7,6.69,173.79-1.31,207.29,.17c22.12,.98,43.49,5.18,62.83,16.81,9.5,5.71,17.73,12.83,25.02,21.15,2.14,2.45,1.37,3.89-.53,5.83-16.62,17.02-33.16,34.11-49.77,51.13-1.97,2.02-4.2,3.77-6.91,6.18Z"/><path class="cls-1" d="M786.83,6.18c15.25,92.76,30.41,185.02,45.66,277.82-1.98,.14-3.39,.32-4.8,.32-24.47,.04-48.94-.02-73.41,.18-3.98,.03-5.59-1.03-5.82-5.17-.48-8.62-1.6-17.19-2.21-25.81-.25-3.46-1.4-5.02-5.13-5-27.3,.11-54.6,.13-81.9-.05-3.51-.02-4.62,2.03-5.83,4.33-4.97,9.39-9.75,18.88-14.87,28.18-.83,1.51-3.04,3.22-4.62,3.23-27.79,.2-55.57,.14-84.44,.14,3.41-5.92,6.44-11.3,9.58-16.61,22.09-37.29,44.24-74.56,66.32-111.86,28.67-48.43,57.32-96.88,85.92-145.36,1.86-3.15,3.9-4.7,7.85-4.66,20.97,.22,41.95,.1,62.92,.11,1.47,0,2.94,.12,4.78,.21Zm-93.98,172.86c1.45,.44,2.21,.87,2.96,.87,13.29,.08,26.57,.13,39.86,.16,3.07,0,3.19-1.71,2.95-4.31-1.99-21.28-3.78-42.58-5.7-63.87-.18-1.99-.78-3.94-1.46-7.28-13.27,25.58-25.78,49.7-38.61,74.44Z"/><path class="cls-1" d="M312.91,283.95c19.74-92.68,39.36-184.82,59.06-277.36h83.34c-3.62,17-7.17,33.68-10.71,50.36-7.06,33.26-14.1,66.52-21.17,99.78-3,14.12-5.87,28.28-9.17,42.33-1.04,4.41,.07,5.7,4.38,5.68,23.14-.11,46.29-.08,69.43-.09,9.81,0,19.62,0,30.37,0-.79,4.36-1.39,8.3-2.22,12.2-4.55,21.24-9.23,42.46-13.67,63.72-.6,2.89-1.71,3.82-4.58,3.82-60.61-.07-121.22-.05-181.82-.07-.81,0-1.63-.18-3.25-.37Z"/><path class="cls-1" d="M251.74,366.46c21.32,0,42.15-1.12,62.8,.32,20.49,1.42,34.41,18.76,35.1,39.29,.45,13.66-3.94,24.76-14.79,33.05-2.54,1.94-2.17,3.52-.97,5.85,6.46,12.54,12.84,25.12,19.24,37.69,.89,1.75,1.69,3.55,3,6.33-4.01,0-7.39,0-10.76,0-8.15,.01-16.31-.13-24.46,.13-3,.09-4.4-.99-5.6-3.58-5.04-10.84-10.25-21.6-15.46-32.35-1.42-2.94-11.11-4.65-13.05-2.27-.61,.76-.59,2.15-.6,3.26-.04,10.47,.05,20.95-.14,31.42-.02,1.15-1.52,3.24-2.36,3.26-10.14,.17-20.28,.03-30.42-.07-.44,0-.88-.39-1.52-.7v-121.62Zm34.2,41.69c0,2.32,.14,4.66-.03,6.97-.26,3.51,1.27,4.72,4.69,4.55,4.47-.23,8.97,.07,13.44-.2,5.86-.36,10.58-5.86,10.49-11.84-.08-5.38-4.31-9.77-10.16-10.34-2.31-.23-4.64-.18-6.97-.19q-10.94-.03-11.46,11.06Z"/><path class="cls-1" d="M717.48,366.04h89.34v31.14c-3.38,0-6.5,0-9.61,0-13.48-.02-26.96,.05-40.44-.13-3.6-.05-4.96,1.05-5.09,4.79-.37,10.73-.52,10.73,10.21,10.75,10.46,.02,20.92,0,31.83,0v28.49c-11.22,0-22.33,0-33.44,0q-8.45,0-8.45,8.41c0,.67,.1,1.35-.02,1.99-.86,4.76,.85,6.33,5.87,6.21,14.97-.36,29.96-.16,44.94-.15,1.64,0,3.27,.2,5.28,.33v30.82h-90.41v-122.65Z"/><path class="cls-1" d="M164.26,397.05c0,4.93-.24,9.07,.18,13.15,.1,.93,2.47,2.3,3.81,2.32,10.81,.17,21.63,.08,32.45,.06,1.79,0,3.57,0,5.65,0v28.4h-42.2c0,5.02-.32,9.5,.22,13.87,.14,1.11,3.01,2.66,4.64,2.68,15.14,.21,30.28,.13,45.42,.13,1.95,0,3.9,0,5.95,0v31.12h-90.39v-122.59h89.3v30.87h-55.04Z"/><path class="cls-1" d="M925.5,382.11c-6.39,7.77-12.68,15.43-18.01,21.91-8.62-2.8-16.35-5.43-24.16-7.76-1.65-.49-3.97-.5-5.37,.32-1.92,1.12-4.15,3.03-4.59,4.98-.36,1.57,1.27,4.69,2.81,5.41,7.5,3.51,15.5,5.99,22.89,9.71,6.75,3.4,13.76,7.04,19.21,12.11,15.38,14.32,11.77,45.98-13.37,56.53-24.64,10.33-57.05,2.92-75.36-17.57,7.43-6.76,14.88-13.55,22.34-20.34-.26-.51-.53-1.01-.79-1.52,2.1,1.45,4.16,2.95,6.3,4.33,7.71,5,15.96,8.14,25.37,7.25,4.22-.4,8.23-1.58,9.13-6.24,.87-4.54-2.48-6.98-6.17-8.52-4.59-1.92-9.43-3.26-13.95-5.31-6.75-3.07-13.62-6.06-19.9-9.95-12.75-7.88-15.31-20.37-13.31-34.01,2.07-14.14,10.87-23.29,24.46-26.53,23.04-5.5,44.14-1.08,62.5,15.2Z"/><path class="cls-1" d="M0,467.56c7.56-7.02,14.96-13.89,21.82-20.26,6.98,3.11,14,6.83,21.43,9.3,3.9,1.3,8.69,1.13,12.77,.24,2.51-.54,5.91-3.47,6.26-5.73,.35-2.25-2.03-6.09-4.27-7.32-5.03-2.77-10.87-4.02-16.09-6.51-7.45-3.54-15.05-7.01-21.84-11.62-16.69-11.32-16.64-46.83,8.54-57,19.52-7.88,49.81-4.54,67.27,13.78-6.16,7.52-12.35,15.08-18.52,22.61-4.38-2.22-8.45-4.92-12.92-6.37-4.48-1.46-9.34-1.91-14.08-2.34-3.3-.29-5.72,1.5-6.56,4.9-.87,3.5,1.19,5.33,4.02,6.49,7.69,3.14,15.7,5.64,23.04,9.43,6.83,3.53,14.26,7.29,19.16,12.91,15.42,17.68,8.12,45.27-13.7,54.9-24.45,10.79-56.99,3.65-76.34-17.43Z"/><path class="cls-1" d="M444.12,488.9c-8.87,0-17.18-.09-25.5,.05-2.76,.05-4.19-.94-5.17-3.52-14.63-38.83-29.33-77.62-44.01-116.43-.28-.75-.49-1.52-.91-2.85h36.99c3.93,12.68,8.01,25.8,12.07,38.93,3.09,9.98,6.14,19.98,9.33,29.93,.45,1.41,1.62,2.6,2.46,3.89,.83-1.28,2-2.45,2.44-3.85,6.52-20.72,13.12-41.41,19.26-62.24,1.6-5.43,3.68-7.85,9.83-7.42,9.59,.67,19.27,.18,29.93,.18-15.75,41.57-31.22,82.4-46.72,123.32Z"/><path class="cls-1" d="M668.85,450.08c6.26,8.47,12.56,17,18.85,25.51-22.97,20.74-63.76,18.6-86.79-4.46-23.15-23.19-24.44-60.85-3.34-84.6,23.63-26.59,65.26-28.15,90.21-7.59-6.36,8.56-12.74,17.15-19.4,26.11-9.51-5.68-19.38-9.27-30.33-5.5-6.63,2.28-11.95,6.47-15.82,12.36-6.79,10.33-5.32,25.27,3.41,35.15,9.98,11.3,23.44,12.28,43.2,3Z"/><path class="cls-1" d="M551.7,488.87h-34.03v-122.83h34.03v122.83Z"/></g></g></svg>